<svg xmlns="http://www.w3.org/2000/svg" width="72.467" height="72.467" viewBox="0 0 72.467 72.467">
  <path id="Icon_awesome-line" data-name="Icon awesome-line" d="M44.014,30.1v11.5a.511.511,0,0,1-.518.518H41.653a.535.535,0,0,1-.421-.21L35.959,34.8v6.826a.511.511,0,0,1-.518.518H33.6a.511.511,0,0,1-.518-.518v-11.5A.511.511,0,0,1,33.6,29.6h1.828a.488.488,0,0,1,.421.226l5.273,7.117V30.121a.511.511,0,0,1,.518-.518H43.48a.512.512,0,0,1,.534.5ZM30.75,29.587H28.906a.511.511,0,0,0-.518.518v11.5a.511.511,0,0,0,.518.518H30.75a.511.511,0,0,0,.518-.518V30.1a.521.521,0,0,0-.518-.518ZM26.3,39.228H21.271V30.1a.511.511,0,0,0-.518-.518H18.909a.511.511,0,0,0-.518.518v11.5a.476.476,0,0,0,.146.356.546.546,0,0,0,.356.146h7.392a.511.511,0,0,0,.518-.518V39.745a.518.518,0,0,0-.5-.518ZM53.72,29.587H46.327a.521.521,0,0,0-.518.518v11.5a.521.521,0,0,0,.518.518H53.72a.511.511,0,0,0,.518-.518V39.762a.511.511,0,0,0-.518-.518H48.689V37.3H53.72a.511.511,0,0,0,.518-.518v-1.86a.511.511,0,0,0-.518-.518H48.689V32.466H53.72a.511.511,0,0,0,.518-.518V30.1a.544.544,0,0,0-.518-.518ZM72.467,15.466V61.615a13.175,13.175,0,0,1-13.216,13.1H13.1A13.186,13.186,0,0,1,0,61.5V15.352A13.186,13.186,0,0,1,13.216,2.25H59.365A13.175,13.175,0,0,1,72.467,15.466ZM62.5,35.3C62.5,23.489,50.662,13.88,36.12,13.88S9.738,23.489,9.738,35.3c0,10.579,9.382,19.443,22.064,21.125,3.09.663,2.734,1.8,2.038,5.953-.113.663-.534,2.6,2.281,1.423S51.309,54.853,56.858,48.48C60.675,44.275,62.5,40.02,62.5,35.3Z" transform="translate(0 -2.25)" fill="#fff"/>
</svg>
