<svg xmlns="http://www.w3.org/2000/svg" width="70" height="70" viewBox="0 0 70 70">
  <g id="Group_30" data-name="Group 30" transform="translate(-1800 -25)">
    <rect id="Rectangle_3" data-name="Rectangle 3" width="70" height="70" rx="35" transform="translate(1800 25)" fill="#06c152"/>
    <path id="Icon_awesome-line" data-name="Icon awesome-line" d="M21.563,15.9v5.634a.25.25,0,0,1-.254.254h-.9a.262.262,0,0,1-.206-.1l-2.583-3.487v3.344a.25.25,0,0,1-.254.254h-.9a.25.25,0,0,1-.254-.254V15.9a.25.25,0,0,1,.254-.254h.9a.239.239,0,0,1,.206.111l2.583,3.487V15.9a.25.25,0,0,1,.254-.254h.9a.251.251,0,0,1,.262.246Zm-6.5-.254h-.9a.25.25,0,0,0-.254.254v5.634a.25.25,0,0,0,.254.254h.9a.25.25,0,0,0,.254-.254V15.9a.255.255,0,0,0-.254-.254Zm-2.179,4.723H10.421V15.9a.25.25,0,0,0-.254-.254h-.9a.25.25,0,0,0-.254.254v5.634a.233.233,0,0,0,.071.174.267.267,0,0,0,.174.071h3.622a.25.25,0,0,0,.254-.254v-.9a.254.254,0,0,0-.246-.254Zm13.432-4.723H22.7a.255.255,0,0,0-.254.254v5.634a.255.255,0,0,0,.254.254h3.622a.25.25,0,0,0,.254-.254v-.9a.25.25,0,0,0-.254-.254H23.853v-.951h2.465a.25.25,0,0,0,.254-.254v-.911A.25.25,0,0,0,26.318,18H23.853v-.951h2.465a.25.25,0,0,0,.254-.254v-.9a.266.266,0,0,0-.254-.254ZM35.5,8.724V31.334a6.455,6.455,0,0,1-6.474,6.419H6.419A6.46,6.46,0,0,1,0,31.278V8.669A6.46,6.46,0,0,1,6.474,2.25H29.084A6.455,6.455,0,0,1,35.5,8.724ZM30.621,18.44c0-5.785-5.8-10.492-12.925-10.492S4.771,12.655,4.771,18.44c0,5.183,4.6,9.525,10.809,10.35,1.514.325,1.339.88,1,2.916-.055.325-.262,1.276,1.117.7s7.441-4.382,10.159-7.5A9.362,9.362,0,0,0,30.621,18.44Z" transform="translate(1817.249 39.999)" fill="#fff"/>
  </g>
</svg>
