<svg xmlns="http://www.w3.org/2000/svg" width="50.138" height="54.561" viewBox="0 0 50.138 54.561">
  <path id="Icon_map-volume-control-telephone" data-name="Icon map-volume-control-telephone" d="M14.335,19.309h2.493c.747,0,1.225-1.1,1.225-1.84V9.621c0-.743-.478-.535-1.225-.535H14.335Zm0,14.871h2.493c.747,0,1.225.863,1.225,1.606v7.847c0,.738-.478,1.7-1.225,1.7H14.335Zm-3.29-7.436c-.021-7.173,1.327-7.436,2.1-7.436h.265V9.085h-.318c-1.369,0-8.047,2.25-8.047,18.124s6.678,18.126,8.047,18.126h.318V34.181H13.14C12.372,34.181,11.065,33.914,11.044,26.745ZM20.094,11.3a3.037,3.037,0,0,1,0,3.866l1.484,1.221a4.974,4.974,0,0,0,0-6.309L20.094,11.3Zm4.772,8.611a9.6,9.6,0,0,0,.01-12.951L23.432,8.214a7.682,7.682,0,0,1-.021,10.434l1.455,1.259Zm3.285,3.524a14.274,14.274,0,0,0,.033-19.592l-1.422,1.3a12.375,12.375,0,0,1-.021,17Zm3.3,3.525A18.981,18.981,0,0,0,31.479.72L30.09,2.047a17.041,17.041,0,0,1-.032,23.573l1.39,1.335Z" transform="translate(-4.691 18.298) rotate(-31)" fill="#fff"/>
</svg>
