<svg xmlns="http://www.w3.org/2000/svg" width="72.467" height="72.467"><path id="Icon_awesome-line" data-name="Icon awesome-line" d="M44.014 30.1v11.5a.511.511 0 0 1-.518.518h-1.843a.535.535 0 0 1-.421-.21L35.959 34.8v6.826a.511.511 0 0 1-.518.518H33.6a.511.511 0 0 1-.518-.518v-11.5a.511.511 0 0 1 .518-.526h1.828a.488.488 0 0 1 .421.226l5.273 7.117v-6.822a.511.511 0 0 1 .518-.518h1.84a.512.512 0 0 1 .534.5Zm-13.264-.513h-1.844a.511.511 0 0 0-.518.518v11.5a.511.511 0 0 0 .518.518h1.844a.511.511 0 0 0 .518-.518V30.1a.521.521 0 0 0-.518-.518Zm-4.45 9.641h-5.029V30.1a.511.511 0 0 0-.518-.518h-1.844a.511.511 0 0 0-.518.518v11.5a.476.476 0 0 0 .146.356.546.546 0 0 0 .356.146h7.392a.511.511 0 0 0 .518-.518v-1.839a.518.518 0 0 0-.5-.518Zm27.42-9.641h-7.393a.521.521 0 0 0-.518.518v11.5a.521.521 0 0 0 .518.518h7.393a.511.511 0 0 0 .518-.518v-1.843a.511.511 0 0 0-.518-.518h-5.031V37.3h5.031a.511.511 0 0 0 .518-.518v-1.86a.511.511 0 0 0-.518-.518h-5.031v-1.938h5.031a.511.511 0 0 0 .518-.518V30.1a.544.544 0 0 0-.518-.518Zm18.747-14.121v46.149a13.175 13.175 0 0 1-13.216 13.1H13.1A13.186 13.186 0 0 1 0 61.5V15.352A13.186 13.186 0 0 1 13.216 2.25h46.149a13.175 13.175 0 0 1 13.102 13.216ZM62.5 35.3c0-11.811-11.838-21.42-26.38-21.42S9.738 23.489 9.738 35.3c0 10.579 9.382 19.443 22.064 21.125 3.09.663 2.734 1.8 2.038 5.953-.113.663-.534 2.6 2.281 1.423s15.188-8.948 20.737-15.321c3.817-4.205 5.642-8.46 5.642-13.18Z" transform="translate(0 -2.25)" fill="#fff"/></svg>